999
dxfLib3.12.2.0
  0
SECTION
  2
HEADER
  9
$ACADVER
  1
AC1015
  9
$HANDSEED
  5
FFFF
  9
$INSUNITS
 70
4
  9
$DIMEXE
 40
1.25
  9
$TEXTSTYLE
  7
Standard
  9
$LIMMIN
 10
0.0
 20
0.0
  0
ENDSEC
  0
SECTION
  2
TABLES
  0
TABLE
  2
VPORT
  5
8
100
AcDbSymbolTable
 70
1
  0
VPORT
  5
30
100
AcDbSymbolTableRecord
100
AcDbViewportTableRecord
  2
*Active
 70
0
 10
0.0
 20
0.0
 11
1.0
 21
1.0
 12
286.305555555555
 22
148.5
 13
0.0
 23
0.0
 14
10.0
 24
10.0
 15
10.0
 25
10.0
 16
0.0
 26
0.0
 36
1.0
 17
0.0
 27
0.0
 37
0.0
 40
297.0
 41
1.92798353909465
 42
50.0
 43
0.0
 44
0.0
 50
0.0
 51
0.0
 71
0
 72
100
 73
1
 74
3
 75
1
 76
1
 77
0
 78
0
281
0
 65
1
110
0.0
120
0.0
130
0.0
111
1.0
121
0.0
131
0.0
112
0.0
122
1.0
132
0.0
 79
0
146
0.0
  0
ENDTAB
  0
TABLE
  2
LTYPE
  5
5
100
AcDbSymbolTable
 70
25
  0
LTYPE
  5
14
100
AcDbSymbolTableRecord
100
AcDbLinetypeTableRecord
  2
BYBLOCK
 70
0
  3

 72
65
 73
0
 40
0.0
  0
LTYPE
  5
15
100
AcDbSymbolTableRecord
100
AcDbLinetypeTableRecord
  2
BYLAYER
 70
0
  3

 72
65
 73
0
 40
0.0
  0
LTYPE
  5
16
100
AcDbSymbolTableRecord
100
AcDbLinetypeTableRecord
  2
CONTINUOUS
 70
0
  3
Solid line
 72
65
 73
0
 40
0.0
  0
LTYPE
  5
31
100
AcDbSymbolTableRecord
100
AcDbLinetypeTableRecord
  2
ACAD_ISO02W100
 70
0
  3

 72
65
 73
0
 40
0.0
  0
LTYPE
  5
32
100
AcDbSymbolTableRecord
100
AcDbLinetypeTableRecord
  2
ACAD_ISO03W100
 70
0
  3

 72
65
 73
0
 40
0.0
  0
LTYPE
  5
33
100
AcDbSymbolTableRecord
100
AcDbLinetypeTableRecord
  2
ACAD_ISO04W100
 70
0
  3

 72
65
 73
0
 40
0.0
  0
LTYPE
  5
34
100
AcDbSymbolTableRecord
100
AcDbLinetypeTableRecord
  2
ACAD_ISO05W100
 70
0
  3

 72
65
 73
0
 40
0.0
  0
LTYPE
  5
35
100
AcDbSymbolTableRecord
100
AcDbLinetypeTableRecord
  2
BORDER
 70
0
  3

 72
65
 73
0
 40
0.0
  0
LTYPE
  5
36
100
AcDbSymbolTableRecord
100
AcDbLinetypeTableRecord
  2
BORDER2
 70
0
  3

 72
65
 73
0
 40
0.0
  0
LTYPE
  5
37
100
AcDbSymbolTableRecord
100
AcDbLinetypeTableRecord
  2
BORDERX2
 70
0
  3

 72
65
 73
0
 40
0.0
  0
LTYPE
  5
38
100
AcDbSymbolTableRecord
100
AcDbLinetypeTableRecord
  2
CENTER
 70
0
  3

 72
65
 73
0
 40
0.0
  0
LTYPE
  5
39
100
AcDbSymbolTableRecord
100
AcDbLinetypeTableRecord
  2
CENTER2
 70
0
  3

 72
65
 73
0
 40
0.0
  0
LTYPE
  5
3A
100
AcDbSymbolTableRecord
100
AcDbLinetypeTableRecord
  2
CENTERX2
 70
0
  3

 72
65
 73
0
 40
0.0
  0
LTYPE
  5
3B
100
AcDbSymbolTableRecord
100
AcDbLinetypeTableRecord
  2
DASHDOT
 70
0
  3

 72
65
 73
0
 40
0.0
  0
LTYPE
  5
3C
100
AcDbSymbolTableRecord
100
AcDbLinetypeTableRecord
  2
DASHDOT2
 70
0
  3

 72
65
 73
0
 40
0.0
  0
LTYPE
  5
3D
100
AcDbSymbolTableRecord
100
AcDbLinetypeTableRecord
  2
DASHDOTX2
 70
0
  3

 72
65
 73
0
 40
0.0
  0
LTYPE
  5
3E
100
AcDbSymbolTableRecord
100
AcDbLinetypeTableRecord
  2
DASHED
 70
0
  3

 72
65
 73
0
 40
0.0
  0
LTYPE
  5
3F
100
AcDbSymbolTableRecord
100
AcDbLinetypeTableRecord
  2
DASHED2
 70
0
  3

 72
65
 73
0
 40
0.0
  0
LTYPE
  5
40
100
AcDbSymbolTableRecord
100
AcDbLinetypeTableRecord
  2
DASHEDX2
 70
0
  3

 72
65
 73
0
 40
0.0
  0
LTYPE
  5
41
100
AcDbSymbolTableRecord
100
AcDbLinetypeTableRecord
  2
DIVIDE
 70
0
  3

 72
65
 73
0
 40
0.0
  0
LTYPE
  5
42
100
AcDbSymbolTableRecord
100
AcDbLinetypeTableRecord
  2
DIVIDE2
 70
0
  3

 72
65
 73
0
 40
0.0
  0
LTYPE
  5
43
100
AcDbSymbolTableRecord
100
AcDbLinetypeTableRecord
  2
DIVIDEX2
 70
0
  3

 72
65
 73
0
 40
0.0
  0
LTYPE
  5
44
100
AcDbSymbolTableRecord
100
AcDbLinetypeTableRecord
  2
DOT
 70
0
  3

 72
65
 73
0
 40
0.0
  0
LTYPE
  5
45
100
AcDbSymbolTableRecord
100
AcDbLinetypeTableRecord
  2
DOT2
 70
0
  3

 72
65
 73
0
 40
0.0
  0
LTYPE
  5
46
100
AcDbSymbolTableRecord
100
AcDbLinetypeTableRecord
  2
DOTX2
 70
0
  3

 72
65
 73
0
 40
0.0
  0
ENDTAB
  0
TABLE
  2
LAYER
  5
2
100
AcDbSymbolTable
 70
12
  0
LAYER
  5
10
100
AcDbSymbolTableRecord
100
AcDbLayerTableRecord
  2
0
 70
0
 62
250
  6
CONTINUOUS
370
100
390
F
  0
LAYER
  5
47
100
AcDbSymbolTableRecord
100
AcDbLayerTableRecord
  2
ITSOFT_Layer_0
 70
0
 62
3
  6
CONTINUOUS
370
100
390
F
  0
LAYER
  5
48
100
AcDbSymbolTableRecord
100
AcDbLayerTableRecord
  2
ITSOFT_Layer_1
 70
0
 62
61
  6
CONTINUOUS
370
100
390
F
  0
LAYER
  5
49
100
AcDbSymbolTableRecord
100
AcDbLayerTableRecord
  2
ITSOFT_Layer_2
 70
0
 62
5
  6
CONTINUOUS
370
100
390
F
  0
LAYER
  5
4A
100
AcDbSymbolTableRecord
100
AcDbLayerTableRecord
  2
ITSOFT_Layer_3
 70
0
 62
171
  6
CONTINUOUS
370
100
390
F
  0
LAYER
  5
4B
100
AcDbSymbolTableRecord
100
AcDbLayerTableRecord
  2
ITSOFT_Layer_4
 70
0
 62
4
  6
CONTINUOUS
370
100
390
F
  0
LAYER
  5
4C
100
AcDbSymbolTableRecord
100
AcDbLayerTableRecord
  2
ITSOFT_Layer_5
 70
0
 62
6
  6
CONTINUOUS
370
100
390
F
  0
LAYER
  5
4D
100
AcDbSymbolTableRecord
100
AcDbLayerTableRecord
  2
ITSOFT_Layer_6
 70
0
 62
1
  6
CONTINUOUS
370
100
390
F
  0
LAYER
  5
4E
100
AcDbSymbolTableRecord
100
AcDbLayerTableRecord
  2
ITSOFT_Layer_7
 70
0
 62
11
  6
CONTINUOUS
370
100
390
F
  0
LAYER
  5
4F
100
AcDbSymbolTableRecord
100
AcDbLayerTableRecord
  2
ITSOFT_Layer_8
 70
0
 62
230
  6
CONTINUOUS
370
100
390
F
  0
LAYER
  5
50
100
AcDbSymbolTableRecord
100
AcDbLayerTableRecord
  2
ITSOFT_Layer_9
 70
0
 62
9
  6
CONTINUOUS
370
100
390
F
  0
LAYER
  5
51
100
AcDbSymbolTableRecord
100
AcDbLayerTableRecord
  2
ITSOFT_Layer_10
 70
0
 62
7
  6
CONTINUOUS
370
100
390
F
  0
ENDTAB
  0
TABLE
  2
STYLE
  5
3
100
AcDbSymbolTable
 70
1
  0
STYLE
  5
52
100
AcDbSymbolTableRecord
100
AcDbTextStyleTableRecord
  2
standard
 70
0
 40
2.5
 41
1.0
 50
0.0
 71
0
 42
2.5
  3

  4

1001
ACAD
1000

1071
0
  0
ENDTAB
  0
TABLE
  2
VIEW
  5
6
100
AcDbSymbolTable
 70
0
  0
ENDTAB
  0
TABLE
  2
UCS
  5
7
100
AcDbSymbolTable
 70
0
  0
ENDTAB
  0
TABLE
  2
APPID
  5
9
100
AcDbSymbolTable
 70
1
  0
APPID
  5
12
100
AcDbSymbolTableRecord
100
AcDbRegAppTableRecord
  2
ACAD
 70
0
  0
ENDTAB
  0
TABLE
  2
DIMSTYLE
  5
A
100
AcDbSymbolTable
 70
1
100
AcDbDimStyleTable
 71
0
  0
DIMSTYLE
105
27
100
AcDbSymbolTableRecord
100
AcDbDimStyleTableRecord
  2
Standard
 41
1.0
 42
1.0
 43
3.75
 44
1.0
 70
0
 73
0
 74
0
 77
1
 78
8
140
1.0
141
2.5
143
0.03937007874016
147
1.0
171
3
172
1
271
2
272
2
274
3
278
44
283
0
284
8
340
11
  0
ENDTAB
  0
TABLE
  2
BLOCK_RECORD
  5
1
100
AcDbSymbolTable
 70
1
  0
BLOCK_RECORD
  5
1F
100
AcDbSymbolTableRecord
100
AcDbBlockTableRecord
  2
*Model_Space
340
22
  0
BLOCK_RECORD
  5
1B
100
AcDbSymbolTableRecord
100
AcDbBlockTableRecord
  2
*Paper_Space
340
1E
  0
BLOCK_RECORD
  5
23
100
AcDbSymbolTableRecord
100
AcDbBlockTableRecord
  2
*Paper_Space0
340
26
  0
BLOCK_RECORD
  5
53
100
AcDbSymbolTableRecord
100
AcDbBlockTableRecord
  2
myblock1
340
0
  0
BLOCK_RECORD
  5
54
100
AcDbSymbolTableRecord
100
AcDbBlockTableRecord
  2
myblock2
340
0
  0
ENDTAB
  0
ENDSEC
  0
SECTION
  2
BLOCKS
  0
BLOCK
  5
20
100
AcDbEntity
  8
0
100
AcDbBlockBegin
  2
*Model_Space
 70
0
 10
0.0
 20
0.0
 30
0.0
  3
*Model_Space
  1

  0
ENDBLK
  5
21
100
AcDbEntity
  8
0
100
AcDbBlockEnd
  0
BLOCK
  5
1C
100
AcDbEntity
 67
1
  8
0
100
AcDbBlockBegin
  2
*Paper_Space
 70
0
 10
0.0
 20
0.0
 30
0.0
  3
*Paper_Space
  1

  0
ENDBLK
  5
1D
100
AcDbEntity
 67
1
  8
0
100
AcDbBlockEnd
  0
BLOCK
  5
24
100
AcDbEntity
  8
0
100
AcDbBlockBegin
  2
*Paper_Space0
 70
0
 10
0.0
 20
0.0
 30
0.0
  3
*Paper_Space0
  1

  0
ENDBLK
  5
25
100
AcDbEntity
  8
0
100
AcDbBlockEnd
  0
BLOCK
  5
55
100
AcDbEntity
  8
0
100
AcDbBlockBegin
  2
myblock1
 70
0
 10
0.0
 20
0.0
 30
0.0
  3
myblock1
  1

  0
ENDBLK
  5
56
100
AcDbEntity
  8
0
100
AcDbBlockEnd
  0
BLOCK
  5
57
100
AcDbEntity
  8
0
100
AcDbBlockBegin
  2
myblock2
 70
0
 10
0.0
 20
0.0
 30
0.0
  3
myblock2
  1

  0
ENDBLK
  5
58
100
AcDbEntity
  8
0
100
AcDbBlockEnd
  0
ENDSEC
  0
SECTION
  2
ENTITIES
  0
LWPOLYLINE
  5
59
  8
ITSOFT_Layer_1
 62
61
370
100
 48
1.0
  6
CONTINUOUS
100
AcDbEntity
100
AcDbPolyline
 90
44
 70
0
 10
5713.45890098302
 20
-1538.15848165086
 30
0.0
 10
5711.48854722745
 20
-1538.15848165086
 30
0.0
 10
5711.48854722745
 20
-1537.35848161278
 30
0.0
 10
5714.88362396408
 20
-1537.35848165084
 30
0.0
 42
0.410808563232422
 10
5649.84508510279
 20
-1473.15849618128
 30
0.0
 10
5597.95470338937
 20
-1473.19319259271
 30
0.0
 42
-1.00068211555481
 10
5594.95470475741
 20
-1473.19519853646
 30
0.0
 10
5572.98435100176
 20
-1473.19521835935
 30
0.0
 10
5572.98435100175
 20
-1819.4808559193
 30
0.0
 10
5594.92505851285
 20
-1819.48085591931
 30
0.0
 42
-0.177141577005386
 10
5593.59431523064
 20
-1823.11827523712
 30
0.0
 42
-0.0203105080872774
 10
5593.28485648749
 20
-1823.45557088382
 30
0.0
 10
5574.35062899568
 20
-1838.48180621104
 30
0.0
 42
0.0917773172259331
 10
5573.61420140607
 20
-1839.27602405826
 30
0.0
 42
0.0868437588214874
 10
5573.49240865809
 20
-1839.97104486915
 30
0.0
 10
5573.49240865809
 20
-1862.1037535619
 30
0.0
 10
5571.09240865809
 20
-1862.1037535619
 30
0.0
 10
5569.49240865809
 20
-1863.70375356189
 30
0.0
 10
5567.89240865809
 20
-1862.1037535619
 30
0.0
 10
5556.58178996169
 20
-1862.10375356188
 30
0.0
 10
5556.5817899617
 20
-2205.21873995115
 30
0.0
 10
5567.89240865806
 20
-2205.21873995117
 30
0.0
 10
5569.49240865809
 20
-2203.61873995113
 30
0.0
 10
5571.09240865809
 20
-2205.21873995113
 30
0.0
 10
5573.4924086571
 20
-2205.21873995118
 30
0.0
 10
5573.4924086571
 20
-2229.26078709572
 30
0.0
 42
0.199746698141098
 10
5574.35062899458
 20
-2230.84068730188
 30
0.0
 10
5592.90611653382
 20
-2245.56249999993
 30
0.0
 10
5598.28818684129
 20
-2245.56189390374
 30
0.0
 10
5598.2885472059
 20
-2246.76189385811
 30
0.0
 10
5596.32487866113
 20
-2246.76211499456
 30
0.0
 42
-1.0
 10
5593.32487868015
 20
-2246.76245283637
 30
0.0
 10
5571.34783986563
 20
-2246.76492775727
 30
0.0
 10
5571.36815093126
 20
-2427.12506739274
 30
0.0
 10
5594.33315371511
 20
-2427.12248121334
 30
0.0
 42
-1.71103930473328
 10
5595.61604312804
 20
-2429.39983007345
 30
0.0
 10
5595.61647981874
 20
-2451.37018391491
 30
0.0
 10
5714.18191537727
 20
-2451.36782717521
 30
0.0
 10
5714.18145891625
 20
-2428.40280897562
 30
0.0
 42
-1.71098756790161
 10
5716.45890098302
 20
-2427.12000586026
 30
0.0
 10
5738.4292547386
 20
-2427.12000586026
 30
0.0
 10
5738.42925473855
 20
-1538.15848165086
 30
0.0
 10
5716.45890098302
 20
-1538.15848165086
 30
0.0
 42
-1.0
 10
5713.45890098302
 20
-1538.15848165086
 30
0.0
  0
LWPOLYLINE
  5
5A
  8
ITSOFT_Layer_1
 62
61
370
100
 48
1.0
  6
CONTINUOUS
100
AcDbEntity
100
AcDbPolyline
 90
5
 70
0
 10
6727.98814778382
 20
-2070.14843749993
 30
0.0
 10
6716.98814778382
 20
-2070.14843749993
 30
0.0
 42
1.0
 10
6716.98814778382
 20
-2079.14843749993
 30
0.0
 10
6727.98814778382
 20
-2079.14843749993
 30
0.0
 42
1.0
 10
6727.98814778382
 20
-2070.14843749993
 30
0.0
  0
LWPOLYLINE
  5
5B
  8
ITSOFT_Layer_1
 62
61
370
100
 48
1.0
  6
CONTINUOUS
100
AcDbEntity
100
AcDbPolyline
 90
5
 70
0
 10
6689.98814778382
 20
-2070.14843749993
 30
0.0
 10
6678.98814778382
 20
-2070.14843749993
 30
0.0
 42
1.0
 10
6678.98814778382
 20
-2079.14843749993
 30
0.0
 10
6689.98814778382
 20
-2079.14843749993
 30
0.0
 42
1.0
 10
6689.98814778382
 20
-2070.14843749993
 30
0.0
  0
LWPOLYLINE
  5
5C
  8
ITSOFT_Layer_1
 62
61
370
100
 48
1.0
  6
CONTINUOUS
100
AcDbEntity
100
AcDbPolyline
 90
5
 70
0
 10
6689.98814778382
 20
-932.648437499935
 30
0.0
 10
6678.98814778382
 20
-932.648437499935
 30
0.0
 42
1.0
 10
6678.98814778382
 20
-941.648437499935
 30
0.0
 10
6689.98814778382
 20
-941.648437499935
 30
0.0
 42
1.0
 10
6689.98814778382
 20
-932.648437499935
 30
0.0
  0
LWPOLYLINE
  5
5D
  8
ITSOFT_Layer_1
 62
61
370
100
 48
1.0
  6
CONTINUOUS
100
AcDbEntity
100
AcDbPolyline
 90
5
 70
0
 10
6727.98814778382
 20
-932.648437499935
 30
0.0
 10
6716.98814778382
 20
-932.648437499935
 30
0.0
 42
1.0
 10
6716.98814778382
 20
-941.648437499935
 30
0.0
 10
6727.98814778382
 20
-941.648437499935
 30
0.0
 42
1.0
 10
6727.98814778382
 20
-932.648437499935
 30
0.0
  0
LWPOLYLINE
  5
5E
  8
ITSOFT_Layer_1
 62
61
370
100
 48
1.0
  6
CONTINUOUS
100
AcDbEntity
100
AcDbPolyline
 90
3
 70
0
 10
5673.68980454039
 20
-757.974645877002
 30
0.0
 42
1.0
 10
5668.03295029089
 20
-763.631500126496
 30
0.0
 42
1.0
 10
5673.68980454039
 20
-757.974645877002
 30
0.0
  0
LWPOLYLINE
  5
5F
  8
ITSOFT_Layer_1
 62
61
370
100
 48
1.0
  6
CONTINUOUS
100
AcDbEntity
100
AcDbPolyline
 90
5
 70
0
 10
5700.75305494343
 20
-342.515526251227
 30
0.0
 42
1.0
 10
5699.93425774467
 20
-349.467473542973
 30
0.0
 10
5708.33166200128
 20
-350.759506214294
 30
0.0
 42
1.0
 10
5709.15045920007
 20
-343.807558922555
 30
0.0
 10
5700.75305494343
 20
-342.515526251227
 30
0.0
  0
LWPOLYLINE
  5
60
  8
ITSOFT_Layer_1
 62
61
370
100
 48
1.0
  6
CONTINUOUS
100
AcDbEntity
100
AcDbPolyline
 90
5
 70
0
 10
5712.42790345503
 20
-306.942072448241
 30
0.0
 10
5704.03049919836
 20
-305.650039776978
 30
0.0
 42
1.0
 10
5703.2117019996
 20
-312.601987068723
 30
0.0
 10
5711.60910625619
 20
-313.894019739979
 30
0.0
 42
1.0
 10
5712.42790345503
 20
-306.942072448241
 30
0.0
  0
LWPOLYLINE
  5
61
  8
ITSOFT_Layer_1
 62
61
370
100
 48
1.0
  6
CONTINUOUS
100
AcDbEntity
100
AcDbPolyline
 90
3
 70
0
 10
5746.52367754514
 20
127.913627895294
 30
0.0
 42
1.0
 10
5740.86682329564
 20
122.2567736458
 30
0.0
 42
1.0
 10
5746.52367754514
 20
127.913627895294
 30
0.0
  0
LWPOLYLINE
  5
62
  8
ITSOFT_Layer_1
 62
61
370
100
 48
1.0
  6
CONTINUOUS
100
AcDbEntity
100
AcDbPolyline
 90
5
 70
0
 10
6727.98814778382
 20
210.351562500065
 30
0.0
 10
6716.98814778382
 20
210.351562500058
 30
0.0
 42
1.0
 10
6716.98814778382
 20
201.351562500058
 30
0.0
 10
6727.98814778382
 20
201.351562500065
 30
0.0
 42
1.0
 10
6727.98814778382
 20
210.351562500065
 30
0.0
  0
LWPOLYLINE
  5
63
  8
ITSOFT_Layer_1
 62
61
370
100
 48
1.0
  6
CONTINUOUS
100
AcDbEntity
100
AcDbPolyline
 90
5
 70
0
 10
6689.98814778382
 20
210.351562500065
 30
0.0
 10
6678.98814778382
 20
210.351562500058
 30
0.0
 42
1.0
 10
6678.98814778382
 20
201.351562500058
 30
0.0
 10
6689.98814778382
 20
201.351562500065
 30
0.0
 42
1.0
 10
6689.98814778382
 20
210.351562500065
 30
0.0
  0
LWPOLYLINE
  5
64
  8
ITSOFT_Layer_1
 62
61
370
100
 48
1.0
  6
CONTINUOUS
100
AcDbEntity
100
AcDbPolyline
 90
5
 70
0
 10
4336.35258186994
 20
-2034.02343749993
 30
0.0
 10
4325.35258186994
 20
-2034.02343749992
 30
0.0
 42
1.0
 10
4325.35258186994
 20
-2043.02343749992
 30
0.0
 10
4336.35258186994
 20
-2043.02343749993
 30
0.0
 42
1.0
 10
4336.35258186994
 20
-2034.02343749993
 30
0.0
  0
LWPOLYLINE
  5
65
  8
ITSOFT_Layer_1
 62
61
370
100
 48
1.0
  6
CONTINUOUS
100
AcDbEntity
100
AcDbPolyline
 90
5
 70
0
 10
4443.54258186994
 20
-1963.83343749993
 30
0.0
 42
-1.0
 10
4434.54258186993
 20
-1963.83343749993
 30
0.0
 10
4434.54258186993
 20
-1952.83343749993
 30
0.0
 42
-1.0
 10
4443.54258186994
 20
-1952.83343749993
 30
0.0
 10
4443.54258186994
 20
-1963.83343749993
 30
0.0
  0
LWPOLYLINE
  5
66
  8
ITSOFT_Layer_1
 62
61
370
100
 48
1.0
  6
CONTINUOUS
100
AcDbEntity
100
AcDbPolyline
 90
5
 70
0
 10
4280.35258186994
 20
-1950.51956266633
 30
0.0
 42
-1.0
 10
4271.35258186994
 20
-1950.51956266633
 30
0.0
 10
4271.35258186994
 20
-1939.51956266633
 30
0.0
 42
-1.0
 10
4280.35258186994
 20
-1939.51956266633
 30
0.0
 10
4280.35258186994
 20
-1950.51956266633
 30
0.0
  0
LWPOLYLINE
  5
67
  8
ITSOFT_Layer_1
 62
61
370
100
 48
1.0
  6
CONTINUOUS
100
AcDbEntity
100
AcDbPolyline
 90
5
 70
0
 10
4434.54258186994
 20
-1820.33343749993
 30
0.0
 42
1.0
 10
4443.54258186994
 20
-1820.33343749993
 30
0.0
 10
4443.54258186993
 20
-1809.33343749992
 30
0.0
 42
1.0
 10
4434.54258186994
 20
-1809.33343749992
 30
0.0
 10
4434.54258186994
 20
-1820.33343749993
 30
0.0
  0
LWPOLYLINE
  5
68
  8
ITSOFT_Layer_1
 62
61
370
100
 48
1.0
  6
CONTINUOUS
100
AcDbEntity
100
AcDbPolyline
 90
5
 70
0
 10
4280.35258186994
 20
-1810.51956266633
 30
0.0
 42
-1.0
 10
4271.35258186994
 20
-1810.51956266633
 30
0.0
 10
4271.35258186994
 20
-1799.51956266634
 30
0.0
 42
-1.0
 10
4280.35258186994
 20
-1799.51956266634
 30
0.0
 10
4280.35258186994
 20
-1810.51956266633
 30
0.0
  0
LWPOLYLINE
  5
69
  8
ITSOFT_Layer_1
 62
61
370
100
 48
1.0
  6
CONTINUOUS
100
AcDbEntity
100
AcDbPolyline
 90
5
 70
0
 10
4443.54258186994
 20
-1677.83343749993
 30
0.0
 42
-1.0
 10
4434.54258186993
 20
-1677.83343749993
 30
0.0
 10
4434.54258186993
 20
-1666.83343749993
 30
0.0
 42
-1.0
 10
4443.54258186994
 20
-1666.83343749993
 30
0.0
 10
4443.54258186994
 20
-1677.83343749993
 30
0.0
  0
LWPOLYLINE
  5
6A
  8
ITSOFT_Layer_1
 62
61
370
100
 48
1.0
  6
CONTINUOUS
100
AcDbEntity
100
AcDbPolyline
 90
5
 70
0
 10
4280.35258186994
 20
-1666.51956266634
 30
0.0
 42
-1.0
 10
4271.35258186994
 20
-1666.51956266634
 30
0.0
 10
4271.35258186994
 20
-1655.51956266634
 30
0.0
 42
-1.0
 10
4280.35258186994
 20
-1655.51956266634
 30
0.0
 10
4280.35258186994
 20
-1666.51956266634
 30
0.0
  0
LWPOLYLINE
  5
6B
  8
ITSOFT_Layer_1
 62
61
370
100
 48
1.0
  6
CONTINUOUS
100
AcDbEntity
100
AcDbPolyline
 90
5
 70
0
 10
4280.35258186994
 20
-1545.33343749993
 30
0.0
 42
-1.0
 10
4271.35258186994
 20
-1545.33343749993
 30
0.0
 10
4271.35258186994
 20
-1534.33343749993
 30
0.0
 42
-1.0
 10
4280.35258186994
 20
-1534.33343749993
 30
0.0
 10
4280.35258186994
 20
-1545.33343749993
 30
0.0
  0
LWPOLYLINE
  5
6C
  8
ITSOFT_Layer_1
 62
61
370
100
 48
1.0
  6
CONTINUOUS
100
AcDbEntity
100
AcDbPolyline
 90
28
 70
0
 10
4411.84613921429
 20
-2011.83343749992
 30
0.0
 10
4413.34613921429
 20
-2010.33343749993
 30
0.0
 10
4414.84613921429
 20
-2011.83343749992
 30
0.0
 10
4449.04258186993
 20
-2011.83343749993
 30
0.0
 42
0.414213567972183
 10
4454.04258186994
 20
-2006.83343749993
 30
0.0
 10
4454.04258186993
 20
-1656.83343749992
 30
0.0
 42
0.414213567972183
 10
4449.04258186993
 20
-1651.83343749993
 30
0.0
 10
4415.85258186994
 20
-1651.83343749993
 30
0.0
 10
4414.49123648503
 20
-1650.68156404948
 30
0.0
 10
4413.34613921429
 20
-1651.21267177448
 30
0.0
 10
4412.20104503665
 20
-1648.74377584386
 30
0.0
 10
4411.25258186995
 20
-1647.94125861429
 30
0.0
 10
4299.24182285205
 20
-1526.44432893677
 30
0.0
 42
0.209486275911331
 10
4295.56569130557
 20
-1524.83343749992
 30
0.0
 10
4263.35258186994
 20
-1524.83343749992
 30
0.0
 10
4261.85258186994
 20
-1526.33343749993
 30
0.0
 10
4260.35258186994
 20
-1524.83343749992
 30
0.0
 10
4253.85258186994
 20
-1524.83343749992
 30
0.0
 42
0.414213567972183
 10
4249.85258186994
 20
-1528.83343749992
 30
0.0
 10
4249.85258186994
 20
-2008.32699484428
 30
0.0
 42
0.414213567972183
 10
4253.85258186994
 20
-2012.32699484428
 30
0.0
 10
4261.85258186994
 20
-2012.32699484428
 30
0.0
 10
4261.85258186994
 20
-2048.02343749993
 30
0.0
 42
0.414213567972183
 10
4266.85258186994
 20
-2053.02343749993
 30
0.0
 10
4406.25258186993
 20
-2053.02343749993
 30
0.0
 42
0.414213567972183
 10
4411.25258186993
 20
-2048.02343749993
 30
0.0
 10
4411.25258186993
 20
-2011.83343749993
 30
0.0
 10
4411.84613921429
 20
-2011.83343749992
 30
0.0
  0
LWPOLYLINE
  5
6D
  8
ITSOFT_Layer_1
 62
61
370
100
 48
1.0
  6
CONTINUOUS
100
AcDbEntity
100
AcDbPolyline
 90
3
 70
0
 10
4171.91691209164
 20
-736.086428377661
 30
0.0
 42
1.0
 10
4166.26005784215
 20
-741.743282627154
 30
0.0
 42
1.0
 10
4171.91691209164
 20
-736.086428377661
 30
0.0
  0
LWPOLYLINE
  5
6E
  8
ITSOFT_Layer_1
 62
61
370
100
 48
1.0
  6
CONTINUOUS
100
AcDbEntity
100
AcDbPolyline
 90
5
 70
0
 10
4198.16396885057
 20
-341.670983805583
 30
0.0
 42
1.0
 10
4197.34517165181
 20
-348.622931097329
 30
0.0
 10
4205.74257590842
 20
-349.91496376865
 30
0.0
 42
1.0
 10
4206.56137310721
 20
-342.963016476904
 30
0.0
 10
4198.16396885057
 20
-341.670983805583
 30
0.0
  0
LWPOLYLINE
  5
6F
  8
ITSOFT_Layer_1
 62
61
370
100
 48
1.0
  6
CONTINUOUS
100
AcDbEntity
100
AcDbPolyline
 90
5
 70
0
 10
4209.5990466698
 20
-306.000215297769
 30
0.0
 10
4201.20164241313
 20
-304.708182626513
 30
0.0
 42
1.0
 10
4200.38284521437
 20
-311.660129918258
 30
0.0
 10
4208.78024947096
 20
-312.952162589514
 30
0.0
 42
1.0
 10
4209.5990466698
 20
-306.000215297769
 30
0.0
  0
LWPOLYLINE
  5
70
  8
ITSOFT_Layer_1
 62
61
370
100
 48
1.0
  6
CONTINUOUS
100
AcDbEntity
100
AcDbPolyline
 90
3
 70
0
 10
4244.75078509638
 20
149.801845394628
 30
0.0
 42
1.0
 10
4239.09393084689
 20
144.144991145135
 30
0.0
 42
1.0
 10
4244.75078509638
 20
149.801845394628
 30
0.0
  0
LWPOLYLINE
  5
71
  8
ITSOFT_Layer_1
 62
61
370
100
 48
1.0
  6
CONTINUOUS
100
AcDbEntity
100
AcDbPolyline
 90
3
 70
0
 10
3894.19307770269
 20
-1563.5471207059
 30
0.0
 42
-0.0868437588214874
 10
3894.31487045067
 20
-1562.85209989502
 30
0.0
 10
3894.19307770269
 20
-1563.5471207059
 30
0.0
  0
LWPOLYLINE
  5
72
  8
ITSOFT_Layer_1
 62
61
370
100
 48
1.0
  6
CONTINUOUS
100
AcDbEntity
100
AcDbPolyline
 90
3
 70
0
 10
3894.31487045067
 20
-1562.85209989502
 30
0.0
 42
-0.10795920342207
 10
3894.66170685281
 20
-1562.40506706586
 30
0.0
 10
3894.31487045067
 20
-1562.85209989502
 30
0.0
  0
LWPOLYLINE
  5
73
  8
ITSOFT_Layer_1
 62
61
370
100
 48
1.0
  6
CONTINUOUS
100
AcDbEntity
100
AcDbPolyline
 90
61
 70
0
 10
6762.48814778382
 20
-2136.64843749993
 30
0.0
 42
0.414213567972183
 10
6757.48814778381
 20
-2141.64843749993
 30
0.0
 10
6757.48814778381
 20
-2199.64843749993
 30
0.0
 42
-0.414213567972183
 10
6752.48814778381
 20
-2204.64843749993
 30
0.0
 10
6374.2107967695
 20
-2204.64843749992
 30
0.0
 10
6372.83381109129
 20
-2203.13291307978
 30
0.0
 10
6371.21145921418
 20
-2204.58832326001
 30
0.0
 10
6349.67871879943
 20
-2204.06903696411
 30
0.0
 10
6348.30228014465
 20
-2202.52865166248
 30
0.0
 10
6346.68132459667
 20
-2203.94778390296
 30
0.0
 42
-0.328287392854691
 10
6301.87733763732
 20
-2165.14683407309
 30
0.0
 10
6241.43024874809
 20
-1898.18698427331
 30
0.0
 42
0.129422098398209
 10
6014.03208135223
 20
-1461.48783820939
 30
0.0
 10
6013.35732893549
 20
-1458.72252770995
 30
0.0
 10
6012.29842789441
 20
-1459.04537223795
 30
0.0
 42
0.005022450350225
 10
5991.33987097498
 20
-1443.03238194846
 30
0.0
 10
5990.26108436252
 20
-1440.65561541329
 30
0.0
 10
5988.96864636405
 20
-1441.19677886678
 30
0.0
 42
0.0695103257894516
 10
5778.66703389753
 20
-1275.76218592266
 30
0.0
 42
-0.281485468149185
 10
5664.83489363538
 20
-1064.52722492253
 30
0.0
 10
5664.22901891294
 20
-1064.47742700014
 30
0.0
 10
5662.83347609178
 20
-1062.90584007696
 30
0.0
 10
5661.33180395237
 20
-1064.23929974309
 30
0.0
 10
5629.97065489989
 20
-1061.66167105385
 30
0.0
 10
5628.59856932467
 20
-1060.04383880845
 30
0.0
 10
5626.98073707926
 20
-1061.41592438367
 30
0.0
 10
5619.61165173454
 20
-1060.81024613616
 30
0.0
 42
-0.414213567972183
 10
5615.03803315048
 20
-1055.4174719848
 30
0.0
 10
5729.53607565061
 20
337.642045100045
 30
0.0
 42
-0.414213567972183
 10
5734.92884980196
 20
342.215663684103
 30
0.0
 10
5742.29793514668
 20
341.609985436597
 30
0.0
 10
5743.6700207219
 20
339.99215319119
 30
0.0
 10
5745.2878529673
 20
341.364238766408
 30
0.0
 10
5745.87979125194
 20
341.315586304649
 30
0.0
 10
5777.58120547629
 20
349.988896563089
 30
0.0
 10
5778.90515915328
 20
348.889780547281
 30
0.0
 10
5780.52299139868
 20
350.261866122491
 30
0.0
 10
5781.11492968332
 20
350.21321366074
 30
0.0
 10
6135.95730372769
 20
350.21321366074
 30
0.0
 10
6137.33433069969
 20
348.735548355347
 30
0.0
 10
6138.95710434188
 20
350.24780087058
 30
0.0
 10
6160.54134278066
 20
350.247800870566
 30
0.0
 10
6161.91836975263
 20
348.770135565188
 30
0.0
 10
6163.54114339484
 20
350.282388080421
 30
0.0
 10
6556.62388668808
 20
350.282388080406
 30
0.0
 10
6558.00091366007
 20
348.804722774999
 30
0.0
 10
6559.62368730227
 20
350.31697529024
 30
0.0
 10
6581.20792574105
 20
350.316975290225
 30
0.0
 10
6582.58495271305
 20
348.83930998484
 30
0.0
 10
6584.20772635524
 20
350.351562500065
 30
0.0
 10
6766.05947507556
 20
350.351562500065
 30
0.0
 10
6767.55947507555
 20
348.851562500058
 30
0.0
 10
6769.05947507555
 20
350.351562500065
 30
0.0
 10
6786.64368767852
 20
350.351562500065
 30
0.0
 42
-0.414213567972183
 10
6791.64368767852
 20
345.351562500058
 30
0.0
 10
6791.64368767853
 20
-2131.64843749993
 30
0.0
 42
-0.414213567972183
 10
6786.64368767853
 20
-2136.64843749993
 30
0.0
 10
6769.05947507553
 20
-2136.64843749993
 30
0.0
 10
6767.55947507553
 20
-2135.14843749992
 30
0.0
 10
6766.05947507553
 20
-2136.64843749992
 30
0.0
 10
6762.48814778382
 20
-2136.64843749993
 30
0.0
  0
LWPOLYLINE
  5
74
  8
ITSOFT_Layer_1
 62
61
370
100
 48
1.0
  6
CONTINUOUS
100
AcDbEntity
100
AcDbPolyline
 90
40
 70
0
 10
3894.19307770269
 20
-1563.5471207059
 30
0.0
 10
3894.19307770269
 20
-1585.67982939865
 30
0.0
 10
3891.79307770271
 20
-1585.67982939864
 30
0.0
 10
3890.19307770269
 20
-1587.27982939865
 30
0.0
 10
3888.5930777027
 20
-1585.67982939864
 30
0.0
 10
3877.28245900631
 20
-1585.67982939863
 30
0.0
 10
3877.28245900631
 20
-1928.79481578789
 30
0.0
 10
3888.59307770267
 20
-1928.79481578792
 30
0.0
 10
3890.19307770269
 20
-1927.19481578789
 30
0.0
 10
3891.79307770271
 20
-1928.79481578788
 30
0.0
 10
3894.19307770172
 20
-1928.79481578792
 30
0.0
 10
3894.19307770172
 20
-1952.83686293247
 30
0.0
 42
0.15151883661747
 10
3894.66170685182
 20
-1953.97891657248
 30
0.0
 10
3895.05129803919
 20
-1954.41676313862
 30
0.0
 10
3913.60678557843
 20
-1969.13857583668
 30
0.0
 10
3918.98885588589
 20
-1969.1379697405
 30
0.0
 10
3918.98921625052
 20
-1970.33796969484
 30
0.0
 10
3917.02554770574
 20
-1970.33819083131
 30
0.0
 42
-1.0
 10
3914.02554772476
 20
-1970.33852867312
 30
0.0
 10
3892.04850891024
 20
-1970.34100359401
 30
0.0
 10
3892.06881997587
 20
-2150.70114322947
 30
0.0
 10
3915.03382275972
 20
-2150.69855705007
 30
0.0
 42
-1.71103930473328
 10
3916.31671217264
 20
-2152.97590591019
 30
0.0
 10
3916.31714886336
 20
-2174.94625975165
 30
0.0
 10
4034.88258442188
 20
-2174.94390301194
 30
0.0
 10
4034.88212796087
 20
-2151.97888481236
 30
0.0
 42
-1.71098756790161
 10
4037.15957002764
 20
-2150.696081697
 30
0.0
 10
4059.12992378321
 20
-2150.696081697
 30
0.0
 10
4059.12992378317
 20
-1261.7345574876
 30
0.0
 10
4037.15957002764
 20
-1261.7345574876
 30
0.0
 42
-1.0
 10
4034.15957002764
 20
-1261.7345574876
 30
0.0
 10
4032.18921627207
 20
-1261.7345574876
 30
0.0
 10
4032.18921627207
 20
-1260.93455744953
 30
0.0
 10
4035.58429300869
 20
-1260.9345574876
 30
0.0
 42
0.410808563232422
 10
3970.54575414702
 20
-1196.73457201804
 30
0.0
 10
3918.65537243399
 20
-1196.76926842944
 30
0.0
 42
-1.00068211555481
 10
3915.65537380203
 20
-1196.77127437321
 30
0.0
 10
3893.68502004637
 20
-1196.77129419611
 30
0.0
 10
3893.68502004637
 20
-1543.05693175605
 30
0.0
 10
3915.62572755745
 20
-1543.05693175607
 30
0.0
  0
LWPOLYLINE
  5
75
  8
ITSOFT_Layer_1
 62
61
370
100
 48
1.0
  6
CONTINUOUS
100
AcDbEntity
100
AcDbPolyline
 90
3
 70
0
 10
3894.66170685281
 20
-1562.40506706586
 30
0.0
 10
3895.0512980403
 20
-1562.05788204781
 30
0.0
 10
3913.98552553209
 20
-1547.03164672056
 30
0.0
  0
LWPOLYLINE
  5
76
  8
ITSOFT_Layer_0
 62
3
370
100
 48
1.0
  6
CONTINUOUS
100
AcDbEntity
100
AcDbPolyline
 90
65
 70
0
 10
4163.77522406695
 20
-979.859954578838
 30
0.0
 10
4164.44592877385
 20
-979.915080993094
 30
0.0
 10
4133.08477972136
 20
-977.337452303858
 30
0.0
 10
4131.71269414614
 20
-975.719620058459
 30
0.0
 10
4130.09486190074
 20
-977.091705633677
 30
0.0
 10
4122.72577655602
 20
-976.486027386163
 30
0.0
 42
-0.414213567972183
 10
4118.15215797196
 20
-971.093253234809
 30
0.0
 10
4232.65020047208
 20
421.966263850045
 30
0.0
 42
-0.414213567972183
 10
4238.04297462344
 20
426.539882434103
 30
0.0
 10
4245.41205996815
 20
425.934204186597
 30
0.0
 10
4246.78414554337
 20
424.316371941182
 30
0.0
 10
4248.40197778878
 20
425.6884575164
 30
0.0
 10
4248.99391607342
 20
425.639805054656
 30
0.0
 10
4280.69533029777
 20
434.313115313096
 30
0.0
 10
4282.01928397475
 20
433.213999297266
 30
0.0
 10
4283.63711622016
 20
434.586084872484
 30
0.0
 10
4284.22905450479
 20
434.537432410732
 30
0.0
 10
4639.07142854917
 20
434.537432410732
 30
0.0
 10
4640.44845552117
 20
433.05976710534
 30
0.0
 10
4642.07122916335
 20
434.57201962058
 30
0.0
 10
4663.65546760213
 20
434.572019620566
 30
0.0
 10
4665.03249457411
 20
433.094354315181
 30
0.0
 10
4666.65526821631
 20
434.606606830406
 30
0.0
 10
5059.73801150955
 20
434.606606830392
 30
0.0
 10
5061.11503848154
 20
433.128941525007
 30
0.0
 10
5062.73781212374
 20
434.641194040232
 30
0.0
 10
5084.32205056253
 20
434.641194040232
 30
0.0
 10
5085.69907753452
 20
433.163528734833
 30
0.0
 10
5087.32185117671
 20
434.675781250051
 30
0.0
 10
5269.17359989702
 20
434.675781250051
 30
0.0
 10
5270.67359989702
 20
433.175781250051
 30
0.0
 10
5272.17359989702
 20
434.675781250051
 30
0.0
 10
5289.75781249999
 20
434.675781250051
 30
0.0
 42
-0.414213567972183
 10
5294.75781249999
 20
429.675781250065
 30
0.0
 10
5294.7578125
 20
-1820.32421875
 30
0.0
 42
-0.414213567972183
 10
5289.75781249999
 20
-1825.32421875
 30
0.0
 10
5279.25781249999
 20
-1825.32421875
 30
0.0
 10
5279.25781249999
 20
-2050.32421874996
 30
0.0
 10
5272.0791397917
 20
-2050.32421874996
 30
0.0
 10
5270.5791397917
 20
-2048.82421874996
 30
0.0
 10
5269.07913979171
 20
-2050.32421874996
 30
0.0
 10
5253.75781250001
 20
-2050.32421874996
 30
0.0
 42
0.414213567972183
 10
5251.75781250001
 20
-2052.32421874996
 30
0.0
 10
5251.75781249999
 20
-2115.32421874993
 30
0.0
 42
-0.414213567972183
 10
5246.75781249999
 20
-2120.32421874993
 30
0.0
 10
4877.32492159098
 20
-2120.32421874993
 30
0.0
 10
4875.94793591276
 20
-2118.80869432977
 30
0.0
 10
4874.32558403566
 20
-2120.26410451002
 30
0.0
 10
4852.8380632708
 20
-2119.74640659391
 30
0.0
 10
4852.7928436209
 20
-2119.74481821411
 30
0.0
 10
4851.41640496613
 20
-2118.20443291248
 30
0.0
 10
4849.79544941814
 20
-2119.62356515296
 30
0.0
 42
-0.328287392854691
 10
4804.99146245879
 20
-2080.82261532309
 30
0.0
 10
4744.5443735696
 20
-1813.86276552341
 30
0.0
 42
0.129422098398209
 10
4517.1462061737
 20
-1377.16361945941
 30
0.0
 10
4516.47145375697
 20
-1374.39830895996
 30
0.0
 10
4515.41255271588
 20
-1374.72115348796
 30
0.0
 42
0.005022450350225
 10
4494.45399579646
 20
-1358.70816319847
 30
0.0
 10
4493.37520918399
 20
-1356.3313966633
 30
0.0
 10
4492.08277118553
 20
-1356.87256011679
 30
0.0
 42
0.0695103257894516
 10
4281.781158719
 20
-1191.43796717266
 30
0.0
 42
-0.281485468149185
 10
4167.94901845685
 20
-980.203006172538
 30
0.0
 10
4167.34314373442
 20
-980.153208250136
 30
0.0
 10
4165.94760091325
 20
-978.581621326979
 30
0.0
 10
4164.44592877385
 20
-979.915080993109
 30
0.0
  0
LWPOLYLINE
  5
77
  8
ITSOFT_Layer_1
 62
61
370
100
 48
1.0
  6
CONTINUOUS
100
AcDbEntity
100
AcDbPolyline
 90
5
 70
0
 10
5182.2578125
 20
-2083.82421874993
 30
0.0
 10
5171.2578125
 20
-2083.82421874993
 30
0.0
 42
1.0
 10
5171.2578125
 20
-2092.82421874993
 30
0.0
 10
5182.2578125
 20
-2092.82421874993
 30
0.0
 42
1.0
 10
5182.2578125
 20
-2083.82421874993
 30
0.0
  0
LWPOLYLINE
  5
78
  8
ITSOFT_Layer_1
 62
61
370
100
 48
1.0
  6
CONTINUOUS
100
AcDbEntity
100
AcDbPolyline
 90
5
 70
0
 10
5181.25781250001
 20
-848.32421875
 30
0.0
 42
1.0
 10
5181.25781250001
 20
-857.32421875
 30
0.0
 10
5192.25781250001
 20
-857.32421875
 30
0.0
 42
1.0
 10
5192.25781250001
 20
-848.32421875
 30
0.0
 10
5181.25781250001
 20
-848.32421875
 30
0.0
  0
LWPOLYLINE
  5
79
  8
ITSOFT_Layer_1
 62
61
370
100
 48
1.0
  6
CONTINUOUS
100
AcDbEntity
100
AcDbPolyline
 90
5
 70
0
 10
5192.25781250001
 20
294.67578125
 30
0.0
 10
5181.25781250001
 20
294.675781249993
 30
0.0
 42
1.0
 10
5181.25781250001
 20
285.675781249993
 30
0.0
 10
5192.25781250001
 20
285.67578125
 30
0.0
 42
1.0
 10
5192.25781250001
 20
294.67578125
 30
0.0
  0
LWPOLYLINE
  5
7A
  8
ITSOFT_Layer_1
 62
61
370
100
 48
1.0
  6
CONTINUOUS
100
AcDbEntity
100
AcDbPolyline
 90
5
 70
0
 10
5220.2578125
 20
-2083.82421874993
 30
0.0
 10
5209.2578125
 20
-2083.82421874993
 30
0.0
 42
1.0
 10
5209.2578125
 20
-2092.82421874993
 30
0.0
 10
5220.2578125
 20
-2092.82421874993
 30
0.0
 42
1.0
 10
5220.2578125
 20
-2083.82421874993
 30
0.0
  0
LWPOLYLINE
  5
7B
  8
ITSOFT_Layer_1
 62
61
370
100
 48
1.0
  6
CONTINUOUS
100
AcDbEntity
100
AcDbPolyline
 90
5
 70
0
 10
5219.25781250001
 20
-848.32421875
 30
0.0
 42
1.0
 10
5219.25781250001
 20
-857.32421875
 30
0.0
 10
5230.2578125
 20
-857.32421875
 30
0.0
 42
1.0
 10
5230.2578125
 20
-848.32421875
 30
0.0
 10
5219.25781250001
 20
-848.32421875
 30
0.0
  0
LWPOLYLINE
  5
7C
  8
ITSOFT_Layer_1
 62
61
370
100
 48
1.0
  6
CONTINUOUS
100
AcDbEntity
100
AcDbPolyline
 90
5
 70
0
 10
5230.2578125
 20
294.67578125
 30
0.0
 10
5219.25781250001
 20
294.675781249993
 30
0.0
 42
1.0
 10
5219.25781250001
 20
285.675781249993
 30
0.0
 10
5230.2578125
 20
285.67578125
 30
0.0
 42
1.0
 10
5230.2578125
 20
294.67578125
 30
0.0
  0
LWPOLYLINE
  5
7D
  8
ITSOFT_Layer_0
 62
3
370
100
 48
1.0
  6
CONTINUOUS
100
AcDbEntity
100
AcDbPolyline
 90
2
 70
0
 10
5279.25781249999
 20
-1827.32421875
 30
0.0
 42
-0.414213567972183
 10
5281.25781249999
 20
-1825.32421875
 30
0.0
  0
ENDSEC
  0
SECTION
  2
OBJECTS
  0
DICTIONARY
  5
C
100
AcDbDictionary
280
0
281
1
  3
ACAD_GROUP
350
D
  3
ACAD_LAYOUT
350
1A
  3
ACAD_MLINESTYLE
350
17
  3
ACAD_PLOTSETTINGS
350
19
  3
ACAD_PLOTSTYLENAME
350
E
  3
AcDbVariableDictionary
350
7E
  0
DICTIONARY
  5
D
100
AcDbDictionary
280
0
281
1
  0
ACDBDICTIONARYWDFLT
  5
E
100
AcDbDictionary
281
1
  3
Normal
350
F
100
AcDbDictionaryWithDefault
340
F
  0
ACDBPLACEHOLDER
  5
F
  0
DICTIONARY
  5
17
100
AcDbDictionary
280
0
281
1
  3
Standard
350
18
  0
MLINESTYLE
  5
18
100
AcDbMlineStyle
  2
STANDARD
 70
0
  3

 62
256
 51
90.0
 52
90.0
 71
2
 49
0.5
 62
256
  6
BYLAYER
 49
-0.5
 62
256
  6
BYLAYER
  0
DICTIONARY
  5
19
100
AcDbDictionary
280
0
281
1
  0
DICTIONARY
  5
1A
100
AcDbDictionary
281
1
  3
Layout1
350
1E
  3
Layout2
350
26
  3
Model
350
22
  0
LAYOUT
  5
1E
100
AcDbPlotSettings
  1

  2
none_device
  4

  6

 40
0.0
 41
0.0
 42
0.0
 43
0.0
 44
0.0
 45
0.0
 46
0.0
 47
0.0
 48
0.0
 49
0.0
140
0.0
141
0.0
142
1.0
143
1.0
 70
688
 72
0
 73
0
 74
5
  7

 75
16
147
1.0
148
0.0
149
0.0
100
AcDbLayout
  1
Layout1
 70
1
 71
1
 10
0.0
 20
0.0
 11
420.0
 21
297.0
 12
0.0
 22
0.0
 32
0.0
 14
100000000000000000000.0
 24
100000000000000000000.0
 34
100000000000000000000.0
 15
-100000000000000000000.0
 25
-100000000000000000000.0
 35
-100000000000000000000.0
146
0.0
 13
0.0
 23
0.0
 33
0.0
 16
1.0
 26
0.0
 36
0.0
 17
0.0
 27
1.0
 37
0.0
 76
0
330
1B
  0
LAYOUT
  5
22
100
AcDbPlotSettings
  1

  2
none_device
  4

  6

 40
0.0
 41
0.0
 42
0.0
 43
0.0
 44
0.0
 45
0.0
 46
0.0
 47
0.0
 48
0.0
 49
0.0
140
0.0
141
0.0
142
1.0
143
1.0
 70
1712
 72
0
 73
0
 74
0
  7

 75
0
147
1.0
148
0.0
149
0.0
100
AcDbLayout
  1
Model
 70
1
 71
0
 10
0.0
 20
0.0
 11
12.0
 21
9.0
 12
0.0
 22
0.0
 32
0.0
 14
0.0
 24
0.0
 34
0.0
 15
0.0
 25
0.0
 35
0.0
146
0.0
 13
0.0
 23
0.0
 33
0.0
 16
1.0
 26
0.0
 36
0.0
 17
0.0
 27
1.0
 37
0.0
 76
0
330
1F
  0
LAYOUT
  5
26
100
AcDbPlotSettings
  1

  2
none_device
  4

  6

 40
0.0
 41
0.0
 42
0.0
 43
0.0
 44
0.0
 45
0.0
 46
0.0
 47
0.0
 48
0.0
 49
0.0
140
0.0
141
0.0
142
1.0
143
1.0
 70
688
 72
0
 73
0
 74
5
  7

 75
16
147
1.0
148
0.0
149
0.0
100
AcDbLayout
  1
Layout2
 70
1
 71
2
 10
0.0
 20
0.0
 11
12.0
 21
9.0
 12
0.0
 22
0.0
 32
0.0
 14
0.0
 24
0.0
 34
0.0
 15
0.0
 25
0.0
 35
0.0
146
0.0
 13
0.0
 23
0.0
 33
0.0
 16
1.0
 26
0.0
 36
0.0
 17
0.0
 27
1.0
 37
0.0
 76
0
330
23
  0
DICTIONARY
  5
7E
100
AcDbDictionary
281
1
  3
DIMASSOC
350
80
  3
HIDETEXT
350
7F
  0
DICTIONARYVAR
  5
7F
100
DictionaryVariables
280
0
  1
2
  0
DICTIONARYVAR
  5
80
100
DictionaryVariables
280
0
  1
1
  0
ENDSEC
  0
EOF
